<svg xmlns="http://www.w3.org/2000/svg" viewBox="0 0 1500 500" width="1500" height="500" role="img">
<title>pbiplint banner 1500x500</title>
<rect width="1500" height="500" fill="#0A0E1A"/>
<line x1="83.8" y1="23.6" x2="237.9" y2="68.1" stroke="#2D7DD2" stroke-width="1.5" opacity="0.14"/>
<line x1="237.9" y1="68.1" x2="423.0" y2="28.8" stroke="#2D7DD2" stroke-width="1.5" opacity="0.12"/>
<line x1="423.0" y1="28.8" x2="628.1" y2="80.9" stroke="#00A9A5" stroke-width="1.5" opacity="0.13"/>
<line x1="628.1" y1="80.9" x2="748.8" y2="52.1" stroke="#00A9A5" stroke-width="1.5" opacity="0.09"/>
<line x1="748.8" y1="52.1" x2="854.9" y2="23.6" stroke="#2D7DD2" stroke-width="1.5" opacity="0.09"/>
<line x1="854.9" y1="23.6" x2="1031.2" y2="65.3" stroke="#00A9A5" stroke-width="1.5" opacity="0.14"/>
<line x1="1031.2" y1="65.3" x2="1229.3" y2="28.8" stroke="#2D7DD2" stroke-width="1.5" opacity="0.12"/>
<line x1="1229.3" y1="28.8" x2="1414.5" y2="75.7" stroke="#2D7DD2" stroke-width="1.5" opacity="0.13"/>
<line x1="83.8" y1="23.6" x2="150.0" y2="117.7" stroke="#2D7DD2" stroke-width="1.5" opacity="0.10"/>
<line x1="1031.2" y1="65.3" x2="996.1" y2="109.7" stroke="#00A9A5" stroke-width="1.5" opacity="0.10"/>
<line x1="1414.5" y1="75.7" x2="1370.5" y2="106.9" stroke="#2D7DD2" stroke-width="1.5" opacity="0.10"/>
<line x1="92.6" y1="346.2" x2="246.7" y2="398.3" stroke="#2D7DD2" stroke-width="1.5" opacity="0.14"/>
<line x1="1361.7" y1="385.1" x2="1454.3" y2="350.0" stroke="#00A9A5" stroke-width="1.5" opacity="0.11"/>
<line x1="143.0" y1="454.5" x2="335.2" y2="467.4" stroke="#00A9A5" stroke-width="1.5" opacity="0.11"/>
<line x1="335.2" y1="467.4" x2="539.6" y2="446.5" stroke="#2D7DD2" stroke-width="1.5" opacity="0.10"/>
<line x1="744.7" y1="462.2" x2="951.6" y2="449.3" stroke="#2D7DD2" stroke-width="1.5" opacity="0.11"/>
<line x1="951.6" y1="449.3" x2="1159.0" y2="462.2" stroke="#00A9A5" stroke-width="1.5" opacity="0.10"/>
<line x1="1159.0" y1="462.2" x2="1377.0" y2="446.5" stroke="#2D7DD2" stroke-width="1.5" opacity="0.10"/>
<line x1="92.6" y1="346.2" x2="143.0" y2="454.5" stroke="#2D7DD2" stroke-width="1.5" opacity="0.09"/>
<line x1="1454.3" y1="350.0" x2="1377.0" y2="446.5" stroke="#00A9A5" stroke-width="1.5" opacity="0.09"/>
<circle cx="83.8" cy="23.6" r="2.8" fill="#2D7DD2" opacity="0.32"/>
<circle cx="237.9" cy="68.1" r="3.5" fill="#00A9A5" opacity="0.28"/>
<circle cx="423.0" cy="28.8" r="2.8" fill="#2D7DD2" opacity="0.25"/>
<circle cx="628.1" cy="80.9" r="3.1" fill="#00A9A5" opacity="0.30"/>
<circle cx="748.8" cy="52.1" r="2.4" fill="#2D7DD2" opacity="0.18"/>
<circle cx="854.9" cy="23.6" r="3.5" fill="#2D7DD2" opacity="0.28"/>
<circle cx="1031.2" cy="65.3" r="2.8" fill="#00A9A5" opacity="0.22"/>
<circle cx="1229.3" cy="28.8" r="3.1" fill="#2D7DD2" opacity="0.30"/>
<circle cx="1414.5" cy="75.7" r="3.5" fill="#00A9A5" opacity="0.28"/>
<circle cx="150.0" cy="117.7" r="2.8" fill="#00A9A5" opacity="0.22"/>
<circle cx="996.1" cy="109.7" r="3.1" fill="#00A9A5" opacity="0.25"/>
<circle cx="1370.5" cy="106.9" r="3.1" fill="#00A9A5" opacity="0.28"/>
<circle cx="92.6" cy="346.2" r="2.8" fill="#2D7DD2" opacity="0.30"/>
<circle cx="246.7" cy="398.3" r="3.5" fill="#00A9A5" opacity="0.25"/>
<circle cx="1361.7" cy="385.1" r="3.1" fill="#00A9A5" opacity="0.28"/>
<circle cx="1454.3" cy="350.0" r="2.8" fill="#2D7DD2" opacity="0.30"/>
<circle cx="143.0" cy="454.5" r="2.4" fill="#00A9A5" opacity="0.20"/>
<circle cx="335.2" cy="467.4" r="3.1" fill="#2D7DD2" opacity="0.22"/>
<circle cx="539.6" cy="446.5" r="2.8" fill="#00A9A5" opacity="0.20"/>
<circle cx="744.7" cy="462.2" r="2.8" fill="#2D7DD2" opacity="0.20"/>
<circle cx="951.6" cy="449.3" r="3.1" fill="#00A9A5" opacity="0.20"/>
<circle cx="1159.0" cy="462.2" r="2.8" fill="#2D7DD2" opacity="0.20"/>
<circle cx="1377.0" cy="446.5" r="2.8" fill="#00A9A5" opacity="0.22"/>
<g transform="translate(329.16,147.14) scale(0.2571)"><circle cx="400" cy="400" r="350" fill="none" stroke="#00A9A5" stroke-width="5" opacity="0.88"/><path d="M 196 236 L 375 358 L 196 480" stroke="#2D7DD2" stroke-width="44" fill="none" stroke-linecap="butt" stroke-linejoin="miter" stroke-miterlimit="20"/><path d="M 452 402 L 522 472 L 652 300" stroke="#00A9A5" stroke-width="44" fill="none" stroke-linecap="butt" stroke-linejoin="miter" stroke-miterlimit="20"/><line x1="217" y1="541" x2="580" y2="541" stroke="#2D7DD2" stroke-width="6" opacity="0.85"/><text x="400" y="612" text-anchor="middle" font-family="'Helvetica Neue', Helvetica, Arial, sans-serif" font-size="46" font-weight="500" letter-spacing="7" fill="#00A9A5">PBIPLINT</text></g>
<text x="555.6" y="234.0" font-family="'Helvetica Neue', Helvetica, Arial, sans-serif" font-size="68.0" font-weight="700" letter-spacing="2.0" fill="#E6EDF6">PBIPLINT</text>
<text x="555.6" y="272.4" font-family="'Helvetica Neue', Helvetica, Arial, sans-serif" font-size="24.8" font-weight="500" letter-spacing="1.5" fill="#A9B4C7">Best-practice linter for Power BI projects</text>
<text x="555.6" y="308.8" font-family="'Helvetica Neue', Helvetica, Arial, sans-serif" font-size="20.8" font-weight="400" letter-spacing="2.9" fill="#00A9A5">Browser   |   CLI   |   Nothing leaves your machine</text>
</svg>